<svg xmlns="http://www.w3.org/2000/svg" width="331.088" height="141" viewBox="0 0 331.088 141"><g transform="translate(-730.751 1653.052)"><path d="M0,126.681H7.7c0,3.769,2.177,6.533,6.282,6.533s6.2-2.765,6.2-5.775c0-3.271-2.261-4.61-5.194-5.614l-2.764-.921C5.275,118.559.586,115.962.586,108.589c0-5.861,4.186-12.144,13.233-12.144,8.126,0,13.4,4.941,13.4,13.066H19.43v-.252c0-3.6-2.009-6.033-5.612-6.033a5.141,5.141,0,0,0-5.527,5.362c0,3.266,2.848,4.61,6.282,5.7l2.848.924c5.777,1.843,10.469,4.6,10.469,12.23C27.89,135.309,21.439,140,13.9,140,5.359,140,0,134.386,0,126.681Zm286.869-8.541c0-12.144,8.878-21.778,21.19-21.778a19.107,19.107,0,0,1,14.24,5.944V80.617h7.789v58.628h-5.193l-2.343-5.782c-1.426,1.846-5.948,6.45-14.492,6.45C295.747,139.913,286.869,130.281,286.869,118.14Zm7.958,0c0,7.874,5.443,14.318,13.819,14.318s13.822-6.444,13.822-14.318-5.443-14.323-13.822-14.323S294.827,110.264,294.827,118.14Zm-85.349,0c0-12.144,8.878-21.778,21.19-21.778a19.1,19.1,0,0,1,14.24,5.944l1.507-4.937h6.28v41.877h-6.28l-1.507-5.277c-1.423,1.844-6.451,5.945-14.24,5.945C218.355,139.913,209.478,130.281,209.478,118.14Zm7.954,0c0,7.874,5.446,14.318,13.822,14.318s13.819-6.444,13.819-14.318-5.443-14.323-13.819-14.323S217.432,110.264,217.432,118.14Zm-60.135,0c0-12.144,8.878-21.778,21.19-21.778a19.107,19.107,0,0,1,14.24,5.944V80.617h7.786v58.628h-5.191l-2.346-5.782c-1.423,1.846-5.948,6.45-14.489,6.45C166.175,139.913,157.3,130.281,157.3,118.14Zm7.955,0c0,7.874,5.446,14.318,13.822,14.318s13.819-6.444,13.819-14.318-5.443-14.323-13.819-14.323S165.251,110.264,165.251,118.14Zm-101.766,0c0-12.144,8.881-21.778,21.193-21.778a19.091,19.091,0,0,1,14.237,5.944l1.507-4.937H106.7v41.877h-6.282l-1.507-5.277c-1.423,1.844-6.448,5.945-14.237,5.945C72.366,139.913,63.485,130.281,63.485,118.14Zm7.957,0c0,7.874,5.443,14.318,13.819,14.318s13.822-6.444,13.822-14.318-5.443-14.323-13.822-14.323S71.443,110.264,71.443,118.14ZM40.371,128.271V104.405H34.422V97.368h5.948V85.893h7.786V97.368H56.62v7.037H48.157v22.946c0,3.017,1.176,4.941,4.61,4.941H56.62v6.784a47.008,47.008,0,0,1-5.7.419C44.975,139.5,40.371,136.815,40.371,128.271Zm223.047,10.974V97.368h5.191l1.844,3.765a9.9,9.9,0,0,1,8.793-4.687,17.557,17.557,0,0,1,3.687.337v7.034h-3.687c-5.194,0-7.955,3.1-7.955,8.962v26.467Zm-122.706,0V112.694c0-3.435-.839-5.528-2.177-6.869a8.112,8.112,0,0,0-11.055,0c-1.341,1.341-2.177,3.353-2.177,6.869v26.551h-7.876V97.368h5.194l1.591,3.266c1.173-1.338,3.687-4.188,10.387-4.188,7.621,0,14.069,5.44,14.069,13.987v28.813ZM90.96,46.4V17.588h7.958V44.14c0,3.431.836,5.527,2.177,6.865a8.092,8.092,0,0,0,11.052,0c1.344-1.338,2.177-3.348,2.177-6.865V17.588H122.2v41.88h-5.194l-1.591-3.185c-.92,1.176-4.021,4.105-10.385,4.105C97.408,60.389,90.96,54.941,90.96,46.4Zm136.856.5h7.708c0,3.769,2.177,6.532,6.282,6.532s6.2-2.764,6.2-5.778c0-3.265-2.262-4.606-5.194-5.614l-2.764-.92c-6.953-2.343-11.642-4.941-11.642-12.312,0-5.861,4.186-12.144,13.232-12.144,8.126,0,13.4,4.941,13.4,13.064H247.25v-.25c0-3.6-2.012-6.032-5.612-6.032a5.139,5.139,0,0,0-5.527,5.361c0,3.267,2.848,4.607,6.282,5.7l2.845.924c5.78,1.84,10.472,4.6,10.472,12.227,0,7.871-6.451,12.565-13.987,12.565C233.179,60.223,227.817,54.608,227.817,46.9Zm-97.827,0H137.7c0,3.769,2.177,6.532,6.28,6.532s6.2-2.764,6.2-5.778c0-3.265-2.262-4.606-5.194-5.614l-2.764-.92c-6.953-2.343-11.641-4.941-11.641-12.312,0-5.861,4.189-12.144,13.232-12.144,8.126,0,13.4,4.941,13.4,13.064h-7.792v-.25c0-3.6-2.009-6.032-5.612-6.032a5.141,5.141,0,0,0-5.528,5.361c0,3.267,2.848,4.607,6.282,5.7l2.848.924c5.777,1.84,10.469,4.6,10.469,12.227,0,7.871-6.451,12.565-13.987,12.565C135.349,60.223,129.99,54.608,129.99,46.9ZM263.5,38.359c0-12.144,8.878-21.776,21.19-21.776a19.1,19.1,0,0,1,14.24,5.945l1.5-4.94h6.282v41.88h-6.282l-1.5-5.277c-1.425,1.843-6.451,5.948-14.24,5.948C272.377,60.139,263.5,50.5,263.5,38.359Zm7.954,0c0,7.873,5.446,14.324,13.822,14.324s13.819-6.451,13.819-14.324-5.443-14.321-13.819-14.321S271.453,30.486,271.453,38.359ZM210.816,59.468V32.916c0-3.435-.839-5.527-2.177-6.869a8.11,8.11,0,0,0-11.058,0c-1.338,1.342-2.177,3.351-2.177,6.869V59.468H187.53V17.588h5.194l1.591,3.269c1.173-1.341,3.687-4.189,10.387-4.189,7.621,0,14.069,5.443,14.069,13.99V59.468Zm-42.214,0V17.588h7.873v41.88Zm-97.075,0V32.916c0-3.435-.836-5.527-2.177-6.869a8.107,8.107,0,0,0-11.055,0c-1.341,1.342-2.261,3.351-2.261,6.869V59.468H48.157V32.916c0-3.435-.833-5.527-2.174-6.869a8.107,8.107,0,0,0-11.055,0c-1.341,1.342-2.18,3.351-2.18,6.869V59.468H24.874V17.588h5.194l1.591,3.269c1.173-1.341,3.687-4.189,10.387-4.189A14.1,14.1,0,0,1,53.1,21.692a16.312,16.312,0,0,1,12.312-5.025c7.621,0,13.987,5.443,13.987,13.99V59.468ZM166.926,5.7a5.612,5.612,0,1,1,11.224,0,5.612,5.612,0,0,1-11.224,0Z" transform="translate(731.251 -1652.553)" fill="#fff" stroke="rgba(0,0,0,0)" stroke-miterlimit="10" stroke-width="1"/></g></svg>